<?xml version="1.0" encoding="UTF-8" standalone="no"?>
<!-- Created with Inkscape (http://www.inkscape.org/) -->

<svg
   xmlns:dc="http://purl.org/dc/elements/1.1/"
   xmlns:cc="http://creativecommons.org/ns#"
   xmlns:rdf="http://www.w3.org/1999/02/22-rdf-syntax-ns#"
   xmlns:svg="http://www.w3.org/2000/svg"
   xmlns="http://www.w3.org/2000/svg"
   xmlns:sodipodi="http://sodipodi.sourceforge.net/DTD/sodipodi-0.dtd"
   xmlns:inkscape="http://www.inkscape.org/namespaces/inkscape"
   sodipodi:docname="speech bubble more angled radial speaker holes centered.svg"
   inkscape:version="0.91 r13725"
   version="1.1"
   id="svg2"
   viewBox="0 0 245.57644 198.73903"
   height="56.088573mm"
   width="69.307129mm">
  <defs
     id="defs4">
    <marker
       style="overflow:visible"
       inkscape:stockid="InfiniteLineEnd"
       id="marker5543"
       refX="0"
       refY="0"
       orient="auto"
       inkscape:isstock="true">
      <g
         id="g5545"
         style="fill:#000000;stroke:#000000;stroke-opacity:1;fill-opacity:1">
        <circle
           id="circle5547"
           r="0.8"
           cy="0"
           cx="3"
           style="stroke:#000000;stroke-opacity:1;fill:#000000;fill-opacity:1" />
        <circle
           id="circle5549"
           r="0.8"
           cy="0"
           cx="6.5"
           style="stroke:#000000;stroke-opacity:1;fill:#000000;fill-opacity:1" />
        <circle
           id="circle5551"
           r="0.8"
           cy="0"
           cx="10"
           style="stroke:#000000;stroke-opacity:1;fill:#000000;fill-opacity:1" />
      </g>
    </marker>
    <marker
       style="overflow:visible"
       inkscape:stockid="InfiniteLineStart"
       id="InfiniteLineStart"
       refX="0"
       refY="0"
       orient="auto"
       inkscape:isstock="true">
      <g
         id="g4948"
         style="fill:#000000;stroke:#000000;stroke-opacity:1;fill-opacity:1"
         transform="translate(-13,0)">
        <circle
           id="circle4950"
           r="0.8"
           cy="0"
           cx="3"
           style="stroke:#000000;stroke-opacity:1;fill:#000000;fill-opacity:1" />
        <circle
           id="circle4952"
           r="0.8"
           cy="0"
           cx="6.5"
           style="stroke:#000000;stroke-opacity:1;fill:#000000;fill-opacity:1" />
        <circle
           id="circle4954"
           r="0.8"
           cy="0"
           cx="10"
           style="stroke:#000000;stroke-opacity:1;fill:#000000;fill-opacity:1" />
      </g>
    </marker>
    <marker
       style="overflow:visible"
       inkscape:stockid="InfiniteLineEnd"
       id="InfiniteLineEnd"
       refX="0"
       refY="0"
       orient="auto"
       inkscape:isstock="true">
      <g
         id="g4939"
         style="fill:#000000;stroke:#000000;stroke-opacity:1;fill-opacity:1">
        <circle
           id="circle4941"
           r="0.8"
           cy="0"
           cx="3"
           style="stroke:#000000;stroke-opacity:1;fill:#000000;fill-opacity:1" />
        <circle
           id="circle4943"
           r="0.8"
           cy="0"
           cx="6.5"
           style="stroke:#000000;stroke-opacity:1;fill:#000000;fill-opacity:1" />
        <circle
           id="circle4945"
           r="0.8"
           cy="0"
           cx="10"
           style="stroke:#000000;stroke-opacity:1;fill:#000000;fill-opacity:1" />
      </g>
    </marker>
    <marker
       inkscape:stockid="RazorWire"
       id="RazorWire"
       refX="0"
       refY="0"
       orient="auto"
       style="overflow:visible"
       inkscape:isstock="true">
      <path
         id="path4936"
         transform="scale(0.8,0.8)"
         style="fill:#000000;fill-opacity:1;fill-rule:evenodd;stroke:#000000;stroke-width:0.1pt;stroke-opacity:1"
         d="M 0.022727273,-0.74009011 L 0.022727273,0.69740989 L -7.7585227,3.0099099 L 10.678977,3.0099099 L 3.4914773,0.69740989 L 3.4914773,-0.74009011 L 10.741477,-2.8963401 L -7.7272727,-2.8963401 L 0.022727273,-0.74009011 z " />
    </marker>
    <marker
       inkscape:stockid="Club"
       orient="auto"
       refY="0.0"
       refX="0.0"
       id="Club"
       style="overflow:visible"
       inkscape:isstock="true">
      <path
         id="path4933"
         d="M -1.5971367,-7.0977635 C -3.4863874,-7.0977635 -5.0235187,-5.5606321 -5.0235187,-3.6713813 C -5.0235187,-3.0147015 -4.7851656,-2.4444556 -4.4641095,-1.9232271 C -4.5028609,-1.8911157 -4.5437814,-1.8647646 -4.5806531,-1.8299921 C -5.2030765,-2.6849849 -6.1700514,-3.2751330 -7.3077730,-3.2751330 C -9.1970245,-3.2751331 -10.734155,-1.7380016 -10.734155,0.15124914 C -10.734155,2.0404999 -9.1970245,3.5776313 -7.3077730,3.5776313 C -6.3143268,3.5776313 -5.4391540,3.1355702 -4.8137404,2.4588126 C -4.9384274,2.8137041 -5.0235187,3.1803000 -5.0235187,3.5776313 C -5.0235187,5.4668819 -3.4863874,7.0040135 -1.5971367,7.0040135 C 0.29211394,7.0040135 1.8292454,5.4668819 1.8292454,3.5776313 C 1.8292454,2.7842354 1.5136868,2.0838028 1.0600576,1.5031550 C 2.4152718,1.7663868 3.7718375,2.2973711 4.7661444,3.8340272 C 4.0279463,3.0958289 3.5540908,1.7534117 3.5540908,-0.058529361 L 2.9247554,-0.10514681 L 3.5074733,-0.12845553 C 3.5074733,-1.9403966 3.9580199,-3.2828138 4.6962183,-4.0210121 C 3.7371277,-2.5387813 2.4390549,-1.9946496 1.1299838,-1.7134486 C 1.5341802,-2.2753578 1.8292454,-2.9268556 1.8292454,-3.6713813 C 1.8292454,-5.5606319 0.29211394,-7.0977635 -1.5971367,-7.0977635 z "
         style="fill-rule:evenodd;stroke:#000000;stroke-width:0.74587913pt;stroke-opacity:1;fill:#000000;fill-opacity:1"
         transform="scale(0.6)" />
    </marker>
    <marker
       inkscape:stockid="Torso"
       orient="auto"
       refY="0.0"
       refX="0.0"
       id="Torso"
       style="overflow:visible"
       inkscape:isstock="true">
      <g
         id="g4916"
         transform="scale(0.7)"
         style="stroke:#000000;stroke-opacity:1;fill:#000000;fill-opacity:1">
        <path
           id="path4918"
           d="M -4.7792281,-3.2395420 C -2.4288541,-2.8736027 0.52103922,-1.3019943 0.25792722,0.38794346 C -0.0051877922,2.0778819 -2.2126741,2.6176539 -4.5630471,2.2517169 C -6.9134221,1.8857769 -8.5210350,0.75201414 -8.2579220,-0.93792336 C -7.9948090,-2.6278615 -7.1296041,-3.6054813 -4.7792281,-3.2395420 z "
           style="fill:#000000;fill-opacity:1;fill-rule:evenodd;stroke:#000000;stroke-width:1.25;stroke-opacity:1" />
        <path
           id="path4920"
           d="M 4.4598789,0.088665736 C -2.5564571,-4.3783320 5.2248769,-3.9061806 -0.84829578,-8.7197331"
           style="fill:#000000;fill-opacity:1;fill-rule:evenodd;stroke:#000000;stroke-width:1pt;stroke-opacity:1" />
        <path
           id="path4922"
           d="M 4.9298719,0.057520736 C -1.3872731,1.7494689 1.8027579,5.4782079 -4.9448731,7.5462725"
           style="fill:#000000;fill-opacity:1;fill-rule:evenodd;stroke:#000000;stroke-width:1pt;stroke-opacity:1" />
        <rect
           id="rect4924"
           transform="matrix(0.527536,-0.849533,0.887668,0.460484,0,0)"
           y="-1.7408575"
           x="-10.391706"
           height="2.7608147"
           width="2.6366582"
           style="fill-rule:evenodd;stroke-width:1pt;stroke:#000000;stroke-opacity:1;fill:#000000;fill-opacity:1" />
        <rect
           id="rect4926"
           transform="matrix(0.671205,-0.741272,0.790802,0.612072,0,0)"
           y="-7.9629307"
           x="4.9587269"
           height="2.8614161"
           width="2.7327356"
           style="fill-rule:evenodd;stroke-width:1pt;stroke:#000000;stroke-opacity:1;fill:#000000;fill-opacity:1" />
        <path
           id="path4928"
           transform="matrix(0,-1.109517,1.109517,0,25.96648,19.71619)"
           d="M 16.779951 -28.685045 A 0.60731727 0.60731727 0 1 0 15.565317,-28.685045 A 0.60731727 0.60731727 0 1 0 16.779951 -28.685045 z"
           style="fill:#000000;fill-opacity:1;fill-rule:evenodd;stroke:#000000;stroke-width:1pt;stroke-opacity:1" />
        <path
           id="path4930"
           transform="matrix(0,-1.109517,1.109517,0,26.82450,16.99126)"
           d="M 16.779951 -28.685045 A 0.60731727 0.60731727 0 1 0 15.565317,-28.685045 A 0.60731727 0.60731727 0 1 0 16.779951 -28.685045 z"
           style="fill:#000000;fill-opacity:1;fill-rule:evenodd;stroke:#000000;stroke-width:1pt;stroke-opacity:1" />
      </g>
    </marker>
    <marker
       inkscape:stockid="Legs"
       orient="auto"
       refY="0.0"
       refX="0.0"
       id="Legs"
       style="overflow:visible"
       inkscape:isstock="true">
      <g
         id="g4903"
         transform="scale(-0.7)"
         style="stroke:#000000;stroke-opacity:1;fill:#000000;fill-opacity:1">
        <g
           id="g4905"
           transform="matrix(0,-1.000000,-1.000000,0,20.70862,21.31391)"
           style="stroke:#000000;stroke-opacity:1;fill:#000000;fill-opacity:1">
          <path
             id="path4907"
             d="M 21.221250,20.675360 C 14.311099,25.396517 18.766725,27.282204 15.380179,34.118595"
             style="fill:#000000;fill-opacity:1;fill-rule:evenodd;stroke:#000000;stroke-width:1pt;stroke-opacity:1" />
          <path
             id="path4909"
             d="M 21.398110,20.548120 C 20.037601,28.895644 24.934182,29.318060 25.903151,34.373078"
             style="fill:#000000;fill-opacity:1;fill-rule:evenodd;stroke:#000000;stroke-width:1pt;stroke-opacity:1" />
        </g>
        <path
           id="path4911"
           d="M -14.090070,-6.7318716 L -15.012238,-2.6884886 L -11.049487,-3.9115586 L -14.090070,-6.7318716 z "
           style="fill:#000000;fill-rule:evenodd;stroke-width:1pt;stroke:#000000;stroke-opacity:1;fill-opacity:1" />
        <path
           id="path4913"
           d="M -15.215679,4.5567534 L -13.341552,8.2563664 L -11.074678,4.7835114 L -15.215679,4.5567534 z "
           style="fill:#000000;fill-rule:evenodd;stroke-width:1pt;stroke:#000000;stroke-opacity:1;fill-opacity:1" />
      </g>
    </marker>
    <marker
       inkscape:stockid="Scissors"
       orient="auto"
       refY="0.0"
       refX="0.0"
       id="Scissors"
       style="overflow:visible"
       inkscape:isstock="true">
      <path
         id="schere"
         d="M 9.0898857,-3.6061018 C 8.1198849,-4.7769976 6.3697607,-4.7358294 5.0623558,-4.2327734 L -3.1500488,-1.1548705 C -5.5383421,-2.4615840 -7.8983361,-2.0874077 -7.8983361,-2.7236578 C -7.8983361,-3.2209742 -7.4416699,-3.1119800 -7.5100293,-4.4068519 C -7.5756648,-5.6501286 -8.8736064,-6.5699315 -10.100428,-6.4884954 C -11.327699,-6.4958500 -12.599867,-5.5553341 -12.610769,-4.2584343 C -12.702194,-2.9520479 -11.603560,-1.7387447 -10.304005,-1.6532027 C -8.7816644,-1.4265411 -6.0857470,-2.3487593 -4.8210600,-0.082342643 C -5.7633447,1.6559151 -7.4350844,1.6607341 -8.9465707,1.5737277 C -10.201445,1.5014928 -11.708664,1.8611256 -12.307219,3.0945882 C -12.885586,4.2766744 -12.318421,5.9591904 -10.990470,6.3210002 C -9.6502788,6.8128279 -7.8098011,6.1912892 -7.4910978,4.6502760 C -7.2454393,3.4624530 -8.0864637,2.9043186 -7.7636052,2.4731223 C -7.5199917,2.1477623 -5.9728246,2.3362771 -3.2164999,1.0982979 L 5.6763468,4.2330688 C 6.8000164,4.5467672 8.1730685,4.5362646 9.1684433,3.4313614 L -0.051640930,-0.053722219 L 9.0898857,-3.6061018 z M -9.2179159,-5.5066058 C -7.9233569,-4.7838060 -8.0290767,-2.8230356 -9.3743431,-2.4433169 C -10.590861,-2.0196559 -12.145370,-3.2022863 -11.757521,-4.5207817 C -11.530373,-5.6026336 -10.104134,-6.0014137 -9.2179159,-5.5066058 z M -9.1616516,2.5107591 C -7.8108215,3.0096239 -8.0402087,5.2951947 -9.4138723,5.6023681 C -10.324932,5.9187072 -11.627422,5.4635705 -11.719569,4.3902287 C -11.897178,3.0851737 -10.363484,1.9060805 -9.1616516,2.5107591 z "
         style="fill:#000000;stroke:#000000;stroke-opacity:1;fill-opacity:1" />
    </marker>
    <marker
       inkscape:stockid="CurvyCross"
       orient="auto"
       refY="0.0"
       refX="0.0"
       id="CurvyCross"
       style="overflow:visible"
       inkscape:isstock="true">
      <g
         id="g4894"
         transform="scale(0.6)"
         style="stroke:#000000;stroke-opacity:1;fill:#000000;fill-opacity:1">
        <path
           id="path4896"
           d="M 4.6254930,-5.0456926 C 1.8654930,-5.0456926 -0.37450702,-2.8056926 -0.37450702,-0.045692580 C -0.37450702,2.7143074 1.8654930,4.9543074 4.6254930,4.9543074"
           style="fill:#000000;fill-rule:evenodd;stroke:#000000;stroke-width:1pt;stroke-opacity:1;fill-opacity:1" />
        <path
           id="path4898"
           d="M -5.4129913,-5.0456926 C -2.6529913,-5.0456926 -0.41299131,-2.8056926 -0.41299131,-0.045692580 C -0.41299131,2.7143074 -2.6529913,4.9543074 -5.4129913,4.9543074"
           style="fill:#000000;fill-rule:evenodd;stroke:#000000;stroke-width:1pt;stroke-opacity:1;fill-opacity:1" />
      </g>
    </marker>
    <marker
       inkscape:stockid="CurveOut"
       orient="auto"
       refY="0.0"
       refX="0.0"
       id="CurveOut"
       style="overflow:visible"
       inkscape:isstock="true">
      <path
         id="path4891"
         d="M -5.4129913,-5.0456926 C -2.6529913,-5.0456926 -0.41299131,-2.8056926 -0.41299131,-0.045692580 C -0.41299131,2.7143074 -2.6529913,4.9543074 -5.4129913,4.9543074"
         style="fill:none;fill-rule:evenodd;stroke:#000000;stroke-width:1pt;stroke-opacity:1"
         transform="scale(0.6)" />
    </marker>
    <marker
       inkscape:stockid="CurveIn"
       orient="auto"
       refY="0.0"
       refX="0.0"
       id="CurveIn"
       style="overflow:visible"
       inkscape:isstock="true">
      <path
         id="path4888"
         d="M 4.6254930,-5.0456926 C 1.8654930,-5.0456926 -0.37450702,-2.8056926 -0.37450702,-0.045692580 C -0.37450702,2.7143074 1.8654930,4.9543074 4.6254930,4.9543074"
         style="fill-rule:evenodd;stroke:#000000;stroke-width:1pt;fill:none;stroke-opacity:1"
         transform="scale(0.6)" />
    </marker>
    <marker
       inkscape:stockid="SemiCircleOut"
       orient="auto"
       refY="0.0"
       refX="0.0"
       id="SemiCircleOut"
       style="overflow:visible"
       inkscape:isstock="true">
      <path
         id="path4885"
         d="M -2.5,-0.80913858 C -2.5,1.9508614 -4.7400000,4.1908614 -7.5,4.1908614 L -7.5,-5.8091386 C -4.7400000,-5.8091386 -2.5,-3.5691386 -2.5,-0.80913858 z "
         style="fill-rule:evenodd;stroke:#000000;stroke-width:1pt;stroke-opacity:1;fill:#000000;fill-opacity:1"
         transform="scale(0.6) translate(7.125493,0.763446)" />
    </marker>
    <marker
       inkscape:stockid="SemiCircleIn"
       orient="auto"
       refY="0.0"
       refX="0.0"
       id="SemiCircleIn"
       style="overflow:visible"
       inkscape:isstock="true">
      <path
         id="path4882"
         d="M -0.37450702,-0.045692580 C -0.37450702,2.7143074 1.8654930,4.9543074 4.6254930,4.9543074 L 4.6254930,-5.0456926 C 1.8654930,-5.0456926 -0.37450702,-2.8056926 -0.37450702,-0.045692580 z "
         style="fill-rule:evenodd;stroke:#000000;stroke-width:1pt;stroke-opacity:1;fill:#000000;fill-opacity:1"
         transform="scale(0.6)" />
    </marker>
    <marker
       inkscape:stockid="StopS"
       orient="auto"
       refY="0.0"
       refX="0.0"
       id="StopS"
       style="overflow:visible"
       inkscape:isstock="true">
      <path
         id="path4879"
         d="M 0.0,5.65 L 0.0,-5.65"
         style="fill:none;fill-opacity:0.75;fill-rule:evenodd;stroke:#000000;stroke-width:1pt;stroke-opacity:1"
         transform="scale(0.2)" />
    </marker>
    <marker
       inkscape:stockid="StopM"
       orient="auto"
       refY="0.0"
       refX="0.0"
       id="StopM"
       style="overflow:visible"
       inkscape:isstock="true">
      <path
         id="path4876"
         d="M 0.0,5.65 L 0.0,-5.65"
         style="fill:none;fill-opacity:0.75;fill-rule:evenodd;stroke:#000000;stroke-width:1pt;stroke-opacity:1"
         transform="scale(0.4)" />
    </marker>
    <marker
       inkscape:stockid="StopL"
       orient="auto"
       refY="0.0"
       refX="0.0"
       id="StopL"
       style="overflow:visible"
       inkscape:isstock="true">
      <path
         id="path4873"
         d="M 0.0,5.65 L 0.0,-5.65"
         style="fill:none;fill-opacity:0.75;fill-rule:evenodd;stroke:#000000;stroke-width:1pt;stroke-opacity:1"
         transform="scale(0.8)" />
    </marker>
    <marker
       inkscape:stockid="DotL"
       orient="auto"
       refY="0.0"
       refX="0.0"
       id="marker4992"
       style="overflow:visible"
       inkscape:isstock="true">
      <path
         id="path4994"
         d="M -2.5,-1.0 C -2.5,1.7600000 -4.7400000,4.0 -7.5,4.0 C -10.260000,4.0 -12.5,1.7600000 -12.5,-1.0 C -12.5,-3.7600000 -10.260000,-6.0 -7.5,-6.0 C -4.7400000,-6.0 -2.5,-3.7600000 -2.5,-1.0 z "
         style="fill-rule:evenodd;stroke:#000000;stroke-width:1pt;stroke-opacity:1;fill:#000000;fill-opacity:1"
         transform="scale(0.8) translate(7.4, 1)" />
    </marker>
    <marker
       inkscape:stockid="DotL"
       orient="auto"
       refY="0.0"
       refX="0.0"
       id="DotL"
       style="overflow:visible"
       inkscape:isstock="true">
      <path
         id="path4765"
         d="M -2.5,-1.0 C -2.5,1.7600000 -4.7400000,4.0 -7.5,4.0 C -10.260000,4.0 -12.5,1.7600000 -12.5,-1.0 C -12.5,-3.7600000 -10.260000,-6.0 -7.5,-6.0 C -4.7400000,-6.0 -2.5,-3.7600000 -2.5,-1.0 z "
         style="fill-rule:evenodd;stroke:#000000;stroke-width:1pt;stroke-opacity:1;fill:#000000;fill-opacity:1"
         transform="scale(0.8) translate(7.4, 1)" />
    </marker>
  </defs>
  <sodipodi:namedview
     fit-margin-bottom="1"
     fit-margin-right="1"
     fit-margin-left="1"
     fit-margin-top="1"
     inkscape:window-maximized="1"
     inkscape:window-y="-8"
     inkscape:window-x="-8"
     inkscape:window-height="1057"
     inkscape:window-width="1858"
     showgrid="false"
     inkscape:current-layer="layer1"
     inkscape:document-units="px"
     inkscape:cy="87.650534"
     inkscape:cx="115.52493"
     inkscape:zoom="2.8"
     inkscape:pageshadow="2"
     inkscape:pageopacity="0.0"
     borderopacity="1.0"
     bordercolor="#666666"
     pagecolor="#ffffff"
     id="base" />
  <metadata
     id="metadata7">
    <rdf:RDF>
      <cc:Work
         rdf:about="">
        <dc:format>image/svg+xml</dc:format>
        <dc:type
           rdf:resource="http://purl.org/dc/dcmitype/StillImage" />
        <dc:title></dc:title>
      </cc:Work>
    </rdf:RDF>
  </metadata>
  <g
     inkscape:label="Layer 1"
     inkscape:groupmode="layer"
     id="layer1"
     transform="translate(-245.97097,-401.6757)">
    <path
       style="opacity:1;fill:#ffffff;fill-opacity:1;stroke:#000000;stroke-width:9;stroke-linecap:butt;stroke-linejoin:round;stroke-miterlimit:4;stroke-dasharray:none;stroke-opacity:1"
       d="m 254.01377,591.18724 c 15.25522,-14.2991 26.18973,-24.17088 26.27202,-46.10684 -14.12718,-14.13501 -22.49596,-31.69379 -22.49596,-50.71854 0,-46.74696 50.52786,-84.64286 112.85714,-84.64286 62.32928,0 112.85714,37.8959 112.85714,84.64286 0,46.74696 -50.52786,84.64286 -112.85714,84.64286 -11.50059,0 -22.59939,-1.29017 -33.05315,-3.68807 -29.30648,17.30708 -68.33847,18.59938 -83.58005,15.87059 z"
       id="path4151-2"
       inkscape:connector-curvature="0"
       sodipodi:nodetypes="ccsssscc" />
    <path
       style="color:#000000;font-style:normal;font-variant:normal;font-weight:normal;font-stretch:normal;font-size:medium;line-height:normal;font-family:sans-serif;text-indent:0;text-align:start;text-decoration:none;text-decoration-line:none;text-decoration-style:solid;text-decoration-color:#000000;letter-spacing:normal;word-spacing:normal;text-transform:none;direction:ltr;block-progression:tb;writing-mode:lr-tb;baseline-shift:baseline;text-anchor:start;white-space:normal;clip-rule:nonzero;display:inline;overflow:visible;visibility:visible;opacity:1;isolation:auto;mix-blend-mode:normal;color-interpolation:sRGB;color-interpolation-filters:linearRGB;solid-color:#000000;solid-opacity:1;fill:#000000;fill-opacity:1;fill-rule:nonzero;stroke:none;stroke-width:8.56999969;stroke-linecap:butt;stroke-linejoin:round;stroke-miterlimit:4;stroke-dasharray:8.57, 34.28;stroke-dashoffset:0;stroke-opacity:1;color-rendering:auto;image-rendering:auto;shape-rendering:auto;text-rendering:auto;enable-background:accumulate"
       d="m 371.40577,451.43409 c -7.16127,0.18171 -6.82197,12.88664 0.32395,12.64932 5.02826,0.49705 9.88212,-6.14265 5.55116,-10.02474 -1.51649,-1.58287 -3.65072,-2.67188 -5.87511,-2.62458 z m -25.93695,8.63421 c -6.33298,0.20949 -8.69382,11.54714 -1.73645,12.69188 5.27386,1.46771 11.35285,-5.2403 7.09679,-9.81884 -1.24568,-1.67027 -3.20756,-2.97936 -5.36034,-2.87304 z m 53.25345,3.95746 c -5.85829,-0.0997 -9.05578,9.02018 -3.30955,11.72825 3.74642,3.15301 10.75057,-0.0297 9.38096,-5.2423 -0.3386,-3.12723 -2.57321,-6.59162 -6.07141,-6.48595 z m -68.46971,22.52444 c -6.31196,0.50172 -5.74246,9.87454 -0.94303,12.20595 5.01312,2.69165 10.74988,-4.10241 7.35075,-8.69872 -1.33578,-2.05673 -3.96922,-3.46821 -6.40772,-3.50723 z m 38.91298,2.32735 c -6.12917,0.51737 -6.71339,10.68498 -0.53672,11.661 4.32939,2.19221 10.63186,-2.68062 7.499,-7.2931 -1.35201,-2.49786 -4.02033,-4.52948 -6.96228,-4.3679 z m 39.87935,3.89506 c -5.29595,-0.20897 -9.08613,7.02003 -4.54772,10.62735 5.24207,5.15249 14.10097,-4.65725 8.66442,-9.48391 -1.1379,-0.96243 -2.67309,-1.19664 -4.1167,-1.14344 z m -68.48755,21.13117 c -5.58866,-0.31943 -9.33768,7.89897 -4.08924,11.10505 3.94746,4.47516 12.16387,-0.0403 10.38302,-5.74608 -0.87266,-2.66778 -3.20613,-5.5544 -6.29378,-5.35897 z m 54.06334,5.33014 c -6.32727,-0.0931 -7.31361,10.91886 -0.87028,11.54294 4.58125,1.05833 10.69296,-3.90858 7.41388,-8.52302 -1.55338,-1.94538 -4.055,-3.1003 -6.5436,-3.01992 z m -27.5073,9.25467 c -5.66409,0.0206 -9.45315,9.42153 -3.4633,11.87239 5.01928,2.51762 12.57884,-3.3595 8.75501,-8.64794 -1.08868,-1.84102 -3.06285,-3.35557 -5.29171,-3.22445 z"
       id="path4698"
       inkscape:connector-curvature="0"
       sodipodi:nodetypes="cccccccccccccccccccccccccccccccccccc" />
  </g>
</svg>
